# xmcd
#
# Track frame offsets:
# 150
# 17637
# 29186
# 43200
# 55868
# 68731
# 83021
# 94393
# 110513
# 125544
#
# Disc length: 1943 seconds
#
#
# Revision: 3
# Processed by: cddbd v1.5.1PL0 Copyright (c) Steve Scherf et al.
# Submitted via: FreeRIP 2.51 
#
DISCID=8907950a
DTITLE=Yvon Colette - La musique fait des amiis
DYEAR=1900
DGENRE=Country
TTITLE0=Vétéran de guerre
TTITLE1=La musique fais des amis
TTITLE2=Je finrai gagnant
TTITLE3=Brasserie du coin
TTITLE4=A mon retour
TTITLE5=L'amour d'un enfant
TTITLE6=Poker run
TTITLE7=En a perdu le droit
TTITLE8=Talsa telephone book
TTITLE9=Réponse tragique
EXTD=
EXTT0=
EXTT1=
EXTT2=
EXTT3=
EXTT4=
EXTT5=
EXTT6=
EXTT7=
EXTT8=
EXTT9=
PLAYORDER=
